<?xml version="1.0" encoding="utf-8"?>
<!-- Generator: Adobe Illustrator 14.0.0, SVG Export Plug-In  -->
<!DOCTYPE svg PUBLIC "-//W3C//DTD SVG 1.1//EN" "http://www.w3.org/Graphics/SVG/1.1/DTD/svg11.dtd" [
	<!ENTITY ns_flows "http://ns.adobe.com/Flows/1.0/">
]>
<svg version="1.1"
	 xmlns="http://www.w3.org/2000/svg" xmlns:xlink="http://www.w3.org/1999/xlink" xmlns:a="http://ns.adobe.com/AdobeSVGViewerExtensions/3.0/"
	 x="0px" y="0px" width="144px" height="144px" viewBox="-35.596 -10.781 144 144" enable-background="new -35.596 -10.781 144 144"
	 xml:space="preserve">
<defs>
</defs>
<polygon display="none" fill="none" stroke="#DE0F79" stroke-width="5" points="35.158,4.3 4.3,4.3 14.08,118.137 34.612,118.137 
	36.404,118.137 58.727,118.137 68.508,4.3 36.404,4.3 "/>
<line display="none" fill="none" stroke="#DE0F79" stroke-width="2" x1="65.488" y1="35.632" x2="6.992" y2="35.632"/>
<g>
	<g>
		<g>
			<path fill="none" stroke="#DE0F79" stroke-width="5" d="M14.08,119.937c-0.935,0-1.713-0.715-1.793-1.646L2.506,4.454
				c-0.043-0.503,0.126-1,0.467-1.371C3.314,2.711,3.795,2.5,4.3,2.5h64.208c0.504,0,0.985,0.211,1.326,0.583
				c0.341,0.371,0.51,0.868,0.467,1.371l-9.781,113.837c-0.08,0.931-0.859,1.646-1.793,1.646H14.08z"/>
		</g>
	</g>
</g>
<line fill="none" stroke="#DE0F79" stroke-width="2" x1="4.3" y1="35.632" x2="68.508" y2="35.632"/>
</svg>
