<?xml version="1.0" encoding="utf-8"?>
<!-- Generator: Adobe Illustrator 14.0.0, SVG Export Plug-In . SVG Version: 6.00 Build 43363)  -->
<!DOCTYPE svg PUBLIC "-//W3C//DTD SVG 1.1//EN" "http://www.w3.org/Graphics/SVG/1.1/DTD/svg11.dtd">
<svg version="1.1" id="Layer_1" xmlns="http://www.w3.org/2000/svg" xmlns:xlink="http://www.w3.org/1999/xlink" x="0px" y="0px"
	 width="482.558px" height="264px" viewBox="0 0 482.558 264" enable-background="new 0 0 482.558 264" xml:space="preserve">
<g id="XMLID_2_">
	<g>
		<path fill="#FFFFFF" d="M100.429,126.83c0.15,0,0.31-0.01,0.48-0.01C100.749,126.88,100.579,126.9,100.429,126.83z"/>
		<path fill="#FFFFFF" d="M481.599,192.61C481.859,192.25,481.789,192.52,481.599,192.61L481.599,192.61z"/>
		<path fill="#FFFFFF" d="M122.359,153.35c0.11,0.1,0.23,0.21,0.33,0.32C122.559,153.98,122.489,153.68,122.359,153.35z"/>
		<path fill="#FFFFFF" d="M205.099,139.83c-0.04,0.09-0.08,0.18-0.12,0.26C205.009,139.99,205.049,139.9,205.099,139.83z"/>
		<path fill="#FFFFFF" d="M285.569,165.57c0.05,0.6,0.01,1.24-0.14,1.93C285.489,166.86,285.529,166.21,285.569,165.57z"/>
		<path fill="#FFFFFF" d="M122.359,153.35c-0.19-0.19-0.39-0.36-0.6-0.52C122.069,152.7,122.239,153.04,122.359,153.35z"/>
		<path fill="#FFFFFF" d="M219.969,86.05c0.04,0.04,0.08,0.08,0.13,0.12C220.009,86.13,219.969,86.09,219.969,86.05z"/>
		<path fill="#FFFFFF" d="M357.099,144.5c-0.04,0.13-0.04,0.3-0.08,0.43C357.019,144.78,357.048,144.64,357.099,144.5z"/>
		<path fill="#FFFFFF" d="M284.699,238.65c0.03-0.051,0.04-0.101,0.06-0.15C284.758,238.56,284.739,238.61,284.699,238.65z"/>
		<path fill="#FFFFFF" d="M100.909,126.82c-0.17,0-0.33,0.01-0.48,0.01C100.579,126.9,100.749,126.88,100.909,126.82z
			 M126.149,177.34c2.04-6.16,8.59-9.45,7.28-17.84c0.59-1.47,1.34-4.34,1.33-6c0-0.24-0.66-0.36-0.66-0.33
			c0.29-1.95,1.18-4.46,1.66-7c0.6-3.15,1.63-6.49,2-9c0.16-1.08-0.64-2.73,1-2.34c-0.14-0.75-1.77-0.01-2-0.66
			c0.08-1.37,1.14-1.76,1.34-3c-0.29-0.49-0.27-1.29-1.34-1c-0.17-1.74,0.44-2.67,0.67-4c5.58-0.91,11.42,0.16,15-0.67
			c-0.69,1.04,0.23,0.43,1,0.33c-0.96,0.8,0.1,1.91,0.33,3.67c-0.96,0.15-1.04,1.18-2.33,1c2.17,0.88,0.96,1.93,2.33,2
			c0.47,0.49-0.34,2.53-2,2c1.94,0.93-0.22,3.14,2,4.33c-0.14,0.49-0.29-0.03-0.66,0c1.74,7.05,2.85,15.49,3.66,22.67
			c0.77,6.83,4.37,9.32,7.34,14c-0.24,1.03-0.24,0.64,0,1.67c1.04-0.57-0.38-2.34,0.33-2.67c-0.5-0.1-0.6-0.45-1.33-1
			c0.32-1.1,0.66,0.37,1,0.33c0.25-3.42,0.65-8.43-0.34-11.33c0.91-0.42,0.41-2.76,0-2.67c1.2-7.67-1.32-15.67,4-21.66
			c-0.04-0.93-0.63-1.15,0.34-0.67c0.01-0.57-0.25-0.86-0.67-1c0.12-0.47,0.59-0.03,0.67,0.33c1.39-1.42,1.62-2.13,1.66-3.33
			c4.68-3.04,2.51-11.75,3-18.67c0.34-4.73,2.9-10.86,2.34-13c-0.09-0.43,2.27-5.03,0.59-5.03c1.99-0.45,0.91-6.17,1.74-8.63
			c-0.05-0.39-0.61-0.28-1-0.34c0.87-0.79,0.78-1.55,2.33-1c-0.31-1.51-2.08,0.17-2.66-0.66c0.44-2.71,1.87-4.65-0.34-6
			c-0.21-1.33,0.89-1.34,0.67-2.67c1.5,0.39,1.76-0.46,2-1.33c5.47,0.38,12.67-1.13,14.67,1.33c0.31,1.32,0.4,2.15,0.33,3.33
			c-0.59,0.08-1.67-0.33-1.33,0.67c0.1,0.3,0.2,0.25,0.26,0.09c-0.09,1.06,0.46,2.36,0.4,4.58c-1.02,0.23-0.64,0.23-1.66,0
			c0.37,0.74,1.32,0.9,1.66,1.66c-1.32,0.84-0.45,7.06,1,8.34c0-0.23,0-0.45,0-0.67c0.91,0.29-0.28,1.48-0.66,0.67
			c0.5,1.27,0.39,3.16,1.33,4c-0.24,3.99,2.6,10.58,3,17c0.14,2.33-0.7,5.75-0.33,8.66c0.31,2.55,2.15,7.24,2,4.67
			c0.54-0.62,0.76,1.01,0,1.33c1.62,2.25,3.43,5.22,5.33,9c0.24-0.18,0.41-0.44,0.55-0.73c-0.35,1.38,1.78,5.19,1.45,8.07
			c0.99-5.58,4.61-10.74,5.33-13.67c1.57-1.37,3.13-3.36,2.67-6c0.32,0.01,0.26,0.41,0.33,0.67c1.08-4.3,1.25-9.36,0.67-14.34
			c0.15-0.48,0.29,0.04,0.67,0c0.58-11.08,4.38-17.83,4-27.66c0.08-0.59,0.57-0.76,1.33-0.67c0.02-0.74-1.46-0.67-1.46-0.45
			c-1.2-1.23,0.2-3.69,0.79-5.88c1.73,0.6,2.53-1.62,3.67-1.34c-0.65-1.62-1.6,0.37-2,1c-0.13-0.66-0.7-1.67-1.67-1.66
			c-0.68,0.65,0.24,1.57-0.33,2.33c-0.31-1.13-1.49-3.13,1-4.67c2.9,0.69,8.07-0.73,11.33,0.34c0.31-0.25,0.51-0.61,0.67-1
			c0.09,1.41,0.74,0.44,2,1.33c-0.76,1.74,0.97,2.81-1,3.33c1.42,1.47,1.59,2.77,1.67,6c-0.7,0.73-0.95-0.16-2,0
			c0.3,1.13,0.74,0.04,1.33,0.67c-0.26,1.67-0.21,5.71,1,7c0-0.22,0-0.44,0-0.67c0.72-0.93,0.12,2.01-0.67,0.67
			c0.74,2.83,1.64,8.35,2.67,10.67c2.61,6.77,0.69,22.54,4.67,27.66c3.31,5.96,7.93,12.79,7,23.67c-0.79-1.73-0.32,5.5,0,7.67
			c2.14-1.08,1.479-4.96,4-5.67c2.02-3.97,2.649-9.45,3-15.33c0.5-8.62,2.029-17.39,3-23.67c0.14-0.94-0.641-1.59-0.67-2.32
			c0.02,0,0.149-5.83,0.67-7.68c-2.131-0.15-1.03-2.64,0-4.33c4.8-0.03,11.29,0.03,15,0c0.33,1.9,1.529,2.39,0.659,4.33
			c-0.26-0.18-0.54-0.35-1-0.33c0.351,1.63,0.721,2.69,1,5.66c-0.59-0.62-0.84,0.27-2,0c-0.29,1.08,1.091,0.47,1.341,1
			c-0.53,2.22-0.29,5.89,1,8c0.38,5.02,1.72,15.03,2.33,23.34c0.34,4.64,0.829,9.98,4.329,11.33c-0.77,2.21,2.561,4.36,2.811,8.07
			c-0.04,0.64-0.08,1.29-0.14,1.93c0.149-0.69,0.189-1.33,0.14-1.93c0.58-9.38-0.33-18.73,0.86-25.4c0.319,0.01,0.26,0.4,0.329,0.66
			c1.99-4.84,4.431-6.98,5.341-11.33c1.069,0.81,1.89-2.89,1.33-3.67c0.149-0.48,0.289,0.04,0.67,0c-1.33-17.73,3.859-26.39,4-40.33
			c0.09-0.68,0.89-0.67,1.33-1c-0.44-1.03-1.48,0.62-2-0.33c0.239-3.81,0.14-4.34,1-5.34c-0.12-0.91-1-0.38-1.671-1.33
			c-0.05-1.73,0.28-3.36,0.671-3.67c1.539-1.23,10.71-2.89,13.67-2.33c3.92,0.74,1.79,2.43,3,5c-0.33,0.45-0.891,0.67-1.341,1
			c0.381,2.45,2.73,5.59,0.341,7.33c0.649,3.99,0.67,8.18,2,11c1.97,7.43,3.59,17.48,3.659,26.67c0.061,6.77,4.79,11.09,6.671,14.67
			c1.06,1.92,2.189,6.4,3.329,9.33c-0.489,2.51-0.659,5.34-0.659,8.33c-0.091,1.32,1.42,1.02,1.33,2.34
			c-0.32-0.01-0.261-0.41-0.33-0.67c-0.761,0.35-0.131,2.1-0.341,3c2.301-6.42,7.07-8.56,8-14.33c0.33,0.01,0.261,0.4,0.341,0.66
			c1.409-2.58,1.569-6.42,3-9c-0.54-0.61-1.061,0.24-1.67-0.66c-0.101-2.11,0.52-3.48,1-5c-0.24-0.36-1-0.04-1.671-0.67
			c-0.149-7.37,10.431-2.63,15.671-5c0.159,0.08,3.35,4.31,0.67,4.67c0.439,2.15,1.069,3.53,1.33,5.66
			c-0.601-0.04-0.7,0.41-1.33,0.34c0.08,0.42,0.659,0.33,0.659,0c-0.369,1.97,1.311,5.45,2,9c0.16,0,0.221-0.1,0.25-0.22
			c-0.05,1.83,2.851,4.5,3.421,3.88c0.13,1.77,2.06,4.51,4.329,6c-1.859-0.29,0.891,2.59,1,4.34c1.82-2.43,4.37-7.61,5.341-8.67
			c2.609-3.44,5.43-8.88,6-14.33c0.29,0.26,0.75,0.35,1.33,0.33c-0.48-0.52-1.301-0.7-2.33-0.67c-0.061-3.09,0.51-3.25,1-5.66
			c-1.511-0.25,0.51,0.91-1,0.66c0.109-0.67-0.07-1.04-0.67-1c1.64-6.83,10.779-3.23,15.67-4.33c1.439,0.78,2,2.44,2.33,4.33
			c-0.301,0.26-0.75,0.36-1.33,0.34c0.1,2.12,0.93,3.51,0.659,6c-0.26-0.18-0.54-0.35-1-0.34c0.95,1.08,1.07,3.98,2,6.67
			c0.33-0.01,0.261-0.41,0.341-0.67c0.319,1.75,0.729,5.51,3.33,6c0.52,1.92,1.1,3.79,3,4.34c0.989,1.67,1.35,3.98,3,5
			c0.18,4.44-0.351,10.7,0.329,16c0.9-1.53,1.33-2.07,1-3c5.221-2.24,7.351-12.94,6-20.34c1.641-5.98,2.53-10.95,3.341-18
			c-0.061-0.72,0.27-1.06,1-1c-0.551-1.14-1.12-0.19-2.341-0.66c0.431-1.31,1.851-2.69,0.671-3.34c0.05-0.39,0.609-0.28,1-0.33
			c-0.211-0.3-0.4-0.6,0-0.67c-0.341-0.55-1.421-0.36-2-0.66c-0.711-6.91,12.109-3.92,16.67-4c0.92,1.08,1.51,2.48,2,4
			c-0.811-0.14-0.73,0.61-1.67,0.33c0.47,1.53,1.09,2.91,1.67,4.33c-0.79,0.49-0.62,0.71-1.67,0.34c1.229,1.87,0.25,4.75,2,6
			c-0.15,0.48-0.29-0.04-0.671,0c1.181,4.5,2.32,11.71,3.341,15.66c0.409,0.12-0.28,1.92,0,3c0.39-0.05,0.279-0.6,0.33-1
			c0.699,3.03-0.061,5.58,1,9c1.119,3.63,7.819,5.87,7.67,12.67c0.46-5.44,0.069-15.03,2.33-18.67c6.42-5.81,4.06-19.05,5-28.66
			c0.52-5.28,2.409-11.48,2.67-16.67c-0.53,0.03-1.271-0.16-1.341,0.33c-0.46-0.7,0.051-4.39,0.671-5
			c-2.271-4.26,0.119-5.88,4.329-6.33c1.921,1.32,6.75-0.29,11,0.33c1.21,1.14,1.641,2.84,1.671,4.34c-0.33,0-0.671,0-1,0
			c0.079,2.45,0.96,1.23,0.67,4c0.949-1.95,0.83,3.26-0.67,2c0.34,4.88,1.52,13.28,3,17c0.47,6.41,1.01,21.53,3.329,24
			c1.561,4.27,5.171,7.11,6,13c0.221,1.51-0.239,3.62,0,5.66c0.75,6.33-1.54,15.92,0.341,21.34c0.159,0.47,0.359,0.51,0.489,0.44
			c-0.05,0.06-0.1,0.13-0.159,0.22c-0.74,1.12,0.35,2.77,0.329,4c-0.029,2.29-0.6,4.51-0.329,7c1.489-0.17,0.01,1.02,0,1.67
			c-0.101,4.66,0.949,13.19,1,20.67c0.02,2.7,0.279,6.16,0,8c-1.271,8.33-17.24,3.04-21,6c-0.75-0.189,0.399-0.52-0.33-1
			c-0.67,0-0.431,0.91-1.341,0.66c-1.579-0.96-8.739-0.62-11.659-1c-1.61-0.51-1.92-4.07-3-4c-0.23-0.59,0.5-1.521,0-3
			c0.05,1.72-1.261,2.92-2,4.34c-0.16,0.3,0.21,1.08,0,1.33c-1.5,1.72-4.931,1.71-8,2c-9.23,0.86-19.23,0.64-26.67-0.33
			c-1.41-2.479-2.9-3.46-3.33-6.67c-0.92,3.48-1.44,6.56-6,7.33c-4.851,0.82-17.98,0.83-24.341,0c-3.89-0.5-5.3-2.05-7-4.66
			c1.16-0.8-0.39-3.54-0.329-5.34c-0.511,2.61-0.881,5.34-1.33,8c-1.86,1.53-6.811,2.74-10.341,3
			c-4.989,0.38-12.939,0.1-18.659-0.66c-6.051-0.81-4.971-5.8-7-11c-0.62,1.62-1.25,5.771-2.67,7.66c-0.44,0-0.891,0-1.33,0
			c-0.721,0.729-1.351,1.55-1.67,2.67c-8.37,2.12-14.181,0.81-19.671,2c-3.239-1.6-10.449,0.34-14.329-2
			c-0.591-0.36-0.04-1.83-1.33-1c-2.44-4.14-2.16-11.83-1.67-17c0.51-5.4-1.011-11.29-1-15c0-0.76,0.06-0.94,0-2
			c-0.12-2.24,0.439-5.67,0.329-7c-0.29,0.21-0.59,0.4-0.659,0c-0.08,5.84-0.66,8.92,0.33,15.33c-1.101,1.28-0.271,9.7,0,13
			c-0.91,3.6,1.6,10.9-2,12.67c0.039,0.26,0.18,0.25,0.26,0.16c-0.721,1.76-4.41,2.29-7.931,2.51c-7.689,0.48-18.31-0.03-23.329-1
			c-0.881-1.29-3.54-3.84-2.671-7c-0.77,3-2.229,5.32-4.329,7c-10.34,2.24-22.05,1.51-33.67,0.66c-1.3-0.96-1.91-2.271-3.66-2.33
			c-0.03-1.66-1.16-3.26-1.34-5.67c-1.77,3.26-1.63,6.2-5,8c-6.61,0.35-10.78,1.25-17.66,1c0.01,0.29,0.31,0.27,0.56,0.32
			c-3.17-0.561-11.54,0.58-15.9-1.98c-0.29-1.07,1.1-0.46,1-1.34c-0.38-1.28-2.92-0.41-4.33-0.66c-0.49-0.74-1.01-1.43-1-2.67
			c-1.52,0.13-0.57,1.48-0.67,1.67c-1.47,2.96-6.43,3.42-9,4.33c-9.3,0.08-18.66,1.71-27.66-1.33c1.1-1.07-0.65-2.18-1.67-3
			c1.22-0.56-0.35-2.29-0.33-3.67c-0.61,2.68-0.95,4.79-1.67,6.67c-10.44,3.29-25.8,2.66-34.67,0c1.39-1.9-0.68-4.46-0.33-7.34
			c-0.46,1.46-1.35,3.41-0.67,5c-1.91-1.22-0.68,2.439-2.33,1.67c-4.24,2.86-11.43,3.07-18,3c-6.86-0.07-14.5-0.12-20.33-1.67
			c0.22-1.16-1.5-1.36-2-2.33c-0.89-1.7-1.17-6.83-1-10.33c0.76-16.32,0.71-32.56,1-50c-0.34,2.55-0.55,5.36-0.67,8
			c-0.75,16.58-0.19,34.67-2.33,50c0.31-0.189,0.5-0.93,0.66-0.34c0.57,1.18-0.52,0.65-1.33,1.34c-0.03,0.47-0.06,0.94,0.33,1
			c-0.89,3.51-10.61,4-17.66,4c-10.14-0.01-19.11,0.561-24.34-3.34c0.12-0.521,0.59,0.29,0.67-0.33
			c-3.58-13.39,0.89-33.91-0.67-48.33c0.15-0.49,0.3,0.03,0.67,0c-0.45-6.45,0.29-14.92,0.67-23.34c0.35-7.87-1.19-16.42,0.33-22.66
			c0.31-1.29,2.27-3.44,1-4c1.62-0.16,0.23-0.59,0.67-1.67c0.75,0.19-0.41,0.52,0.33,1c2.15-2.72,1.37-3.36,3.33-5
			c-0.87-1.1-1,0.11-0.33-1.67c0.93,0.33-0.48,0.89,0.33,1.34c0.85-1.6,2.13-2.86,1.67-3.34c4.13-3.7,2.65-17.52,4-24
			c0.27,0.07,0.33,0.34,0.67,0.34c-0.39-2.35,1.37-3.55,0.66-5.67c0.59-0.47,5.11-13.6,2.34-17.67c0.7-1.94,0.94-3.84,1.66-5
			c-0.44-0.43-1.24-0.44-1.33,0.34c-0.49-0.7,0.66-3.79,1.67-5c5.21,0.83,12.31-0.19,15.33,1.33c0.3,0.26-0.08,2.3,0.67,3
			c-0.08,0.59-0.58,0.76-1.34,0.67c0.28,2.53,1.41,3.75,1,5.66c-0.7,0.74-0.98-0.42-2-0.33c2.79,3.04,0.5,10.72,3.34,14.33
			c-0.91,1.39,0.41,2.62,0.66,4c1.47,8.15,1.18,20.38,2.67,27.34c0.27-0.18,0.54-0.35,1-0.34c-1.31,0.95,1.21,5.18,1.67,3.67
			c-0.28,0.8,0.05,3.31,1.66,3c-0.99,1.74,3.58,6.32,2.67,10.33c1-4.21,2.19-7.42,4.67-10c-0.69-1.05-0.67,0.94-1,0
			c-0.95-0.48,3.17-0.91,2-1.66c1.4-1.87,2.38-3.74,3.66-6c-0.27-0.14-1.37-0.43-0.66-1.34c0.48,0.15-0.04,0.3,0,0.67
			c2.21-1.23,0.61-4.01,0.66-5.67c0.23-6.43,1.77-16.93,3.34-23.33c1.25-5.14,3.62-10.4,1-16.33c0.32,0.01,0.26,0.4,0.33,0.66
			c2.28-3.35-1.32-5.68,0.67-8c0.99-1.16,12.14-0.44,16,0.67c0.84-0.29-0.85-2.15,0-1.33c1.23-1.2-0.15,1.25,0.66,0.33
			c-0.36,0.99-0.73,1.78-0.33,4.33c-0.44,0.4-0.52,0.13-1,0c0.09,1.99,1.46,4.22,1,5.67c-1.26,0.3-1.74,0.19-2.33-0.33
			c-0.53,0.11,0.29,0.58-0.34,0.66c0.45,1.03,1.49-0.62,2,0.34c-0.54,6.94,2.01,15.83,3.67,19.66c-0.22,0-0.44,0-0.67,0
			c1.92,4,1.06,12.69,1.67,19c0.18,1.84,1.58,7.73,2.33,6.34c0.16,0.9,0.25,2.33,1.34,2.36c-0.5,0.21-0.21,1.22,0.33,1.97
			c0.09-1.17,1.21,0.98,1,1.67c0.27-0.18,0.54-0.35,1-0.34c-1.49,0.64,0.2,1.51,0.67,2.34c3.06,5.46,1.97,15.44,2,22
			c1.39-4.83,3.85-5.32,6-10.34c4.16-2.07,3.43-8.61,5.33-12.33c-0.83,0.43-1.38-0.98-1.67,0c-0.34-1.36,0.61-3.99,1.34-5.67
			c-0.7-0.85-0.32-2.79-1.67-3c0.29-0.81,0.3-1.92,1.33-2c-0.3-0.58-0.74-1.03-1.33-1.33c0.28-0.63,1.17,1.01,1.67-0.33
			c0.56,0,0.24,0.48-0.18,0.65c4.45-0.2,14.74-1.57,16.51,2.01c0.16,0.33-0.92,1.59,0,2c-0.64,0.82-1.57,1.72-2.33,0.67
			c0.8,1.86,1.21,4.12,2,6c-0.91,0.73-0.83,0.37-2,0.67c0.98,1,0.85,1.52,1,3.66c0.32-0.01,0.26-0.4,0.33-0.66
			c1.1-0.25,0.51,0.66,0,0.66c1.33,6,2.85,8.11,6.33,11.67c-0.02,0.07-0.04,0.13-0.07,0.17c-0.1-0.11-0.22-0.22-0.33-0.32
			c-0.12-0.31-0.29-0.65-0.6-0.52c0.21,0.16,0.41,0.33,0.6,0.52c0.13,0.33,0.2,0.63,0.33,0.32c4.35,4.55,3.99,13.79,4.07,20.16
			C125.519,171.5,126.429,176.2,126.149,177.34z"/>
		<path fill="#FFFFFF" d="M85.109,133.53c0.09-0.03,0.19-0.05,0.32-0.03C85.319,133.52,85.208,133.53,85.109,133.53z"/>
		<path fill="#FFFFFF" d="M192.429,81.2c0,0.14-0.03,0.29-0.07,0.39C192.369,81.46,192.389,81.33,192.429,81.2z"/>
	</g>
	<g>
	</g>
</g>
</svg>
